# xmcd CD database file
#
# Track frame offsets:
#	150
#	31710
#	62032
#	93240
#	113530
#	140227
#	167637
#
# Disc length: 2624 seconds
#
# Revision: 0
# Processed by: cddbd v1.4PL0 Copyright (c) Steve Scherf et al.
# Submitted via: CDex 1.50
#
DISCID=530a3e07
DTITLE=Jimmy Raney - Solo
DYEAR=1900
DGENRE=Jazz
TTITLE0=The Fugue
TTITLE1=New Signal
TTITLE2=How Deep is the Ocean
TTITLE3=The Way You Look Tonight
TTITLE4=Wait Till You See Her
TTITLE5=Smoke Gets in Your Eyes
TTITLE6=Blues Variations
EXTD=
EXTT0=
EXTT1=
EXTT2=
EXTT3=
EXTT4=
EXTT5=
EXTT6=
PLAYORDER=
